<svg xmlns="http://www.w3.org/2000/svg" x="0px" y="0px"
width="32" height="32"
viewBox="0 0 172 172"
style=" fill:#000000;"><g fill="none" fill-rule="nonzero" stroke="none" stroke-width="1" stroke-linecap="butt" stroke-linejoin="miter" stroke-miterlimit="10" stroke-dasharray="" stroke-dashoffset="0" font-family="none" font-weight="none" font-size="none" text-anchor="none" style="mix-blend-mode: normal"><path d="M0,172v-172h172v172z" fill="none"></path><path d="M0,86c0,-47.49649 38.50351,-86 86,-86c47.49649,0 86,38.50351 86,86c0,47.49649 -38.50351,86 -86,86c-47.49649,0 -86,-38.50351 -86,-86zM86,168.56c45.59663,0 82.56,-36.96337 82.56,-82.56c0,-45.59663 -36.96337,-82.56 -82.56,-82.56c-45.59663,0 -82.56,36.96337 -82.56,82.56c0,45.59663 36.96337,82.56 82.56,82.56z" fill="#cccccc"></path><g fill="#000000"><path d="M119.325,46.35938l-3.82969,0.80625l-51.6,9.675l-2.62031,0.40312v43.23516c-1.91484,-1.12119 -4.08164,-1.81406 -6.45,-1.81406c-7.09248,0 -12.9,5.80752 -12.9,12.9c0,7.09248 5.80752,12.9 12.9,12.9c7.09248,0 12.9,-5.80752 12.9,-12.9v-36.07969l45.15,-8.46563v23.78438c-1.91484,-1.12119 -4.08164,-1.81406 -6.45,-1.81406c-7.09248,0 -12.9,5.80752 -12.9,12.9c0,7.09248 5.80752,12.9 12.9,12.9c7.09248,0 12.9,-5.80752 12.9,-12.9zM112.875,54.11953v6.45l-45.15,8.46563v-6.45zM106.425,95.43984c3.60293,0 6.45,2.84707 6.45,6.45c0,3.60293 -2.84707,6.45 -6.45,6.45c-3.60293,0 -6.45,-2.84707 -6.45,-6.45c0,-3.60293 2.84707,-6.45 6.45,-6.45zM54.825,105.11484c3.60293,0 6.45,2.84707 6.45,6.45c0,3.60293 -2.84707,6.45 -6.45,6.45c-3.60293,0 -6.45,-2.84707 -6.45,-6.45c0,-3.60293 2.84707,-6.45 6.45,-6.45z"></path></g><path d="M86,172c-47.49649,0 -86,-38.50351 -86,-86v0c0,-47.49649 38.50351,-86 86,-86v0c47.49649,0 86,38.50351 86,86v0c0,47.49649 -38.50351,86 -86,86z" fill="none"></path><path d="M86,168.56c-45.59663,0 -82.56,-36.96337 -82.56,-82.56v0c0,-45.59663 36.96337,-82.56 82.56,-82.56v0c45.59663,0 82.56,36.96337 82.56,82.56v0c0,45.59663 -36.96337,82.56 -82.56,82.56z" fill="none"></path></g></svg>