<?xml version="1.0" encoding="UTF-8"?>
<svg xmlns="http://www.w3.org/2000/svg" xmlns:xlink="http://www.w3.org/1999/xlink" width="24pt" height="24pt" viewBox="0 0 24 24" version="1.1">
<g id="surface12660894">
<path style=" stroke:none;fill-rule:nonzero;fill:rgb(100%,43.529412%,38.039216%);fill-opacity:1;" d="M 12 24 C 5.371094 24 0 18.628906 0 12 C 0 5.371094 5.371094 0 12 0 C 18.628906 0 24 5.371094 24 12 C 24 18.628906 18.628906 24 12 24 Z M 12 24 "/>
<path style=" stroke:none;fill-rule:nonzero;fill:rgb(100%,100%,100%);fill-opacity:1;" d="M 6.636719 6.148438 C 5.835938 6.148438 5.175781 6.8125 5.175781 7.613281 L 5.175781 15.738281 C 5.175781 16.898438 6.125 17.851562 7.289062 17.851562 L 16.710938 17.851562 C 17.875 17.851562 18.824219 16.898438 18.824219 15.738281 L 18.824219 10.863281 C 18.824219 10.0625 18.164062 9.398438 17.363281 9.398438 L 16.875 9.398438 L 16.875 7.613281 C 16.875 6.8125 16.214844 6.148438 15.414062 6.148438 Z M 6.636719 7.125 L 15.414062 7.125 C 15.6875 7.125 15.898438 7.335938 15.898438 7.613281 L 15.898438 9.808594 C 15.890625 9.859375 15.890625 9.914062 15.898438 9.964844 L 15.898438 15.414062 C 15.898438 15.589844 15.988281 15.75 16.140625 15.839844 C 16.292969 15.929688 16.480469 15.929688 16.632812 15.839844 C 16.785156 15.75 16.878906 15.589844 16.875 15.414062 L 16.875 10.375 L 17.363281 10.375 C 17.636719 10.375 17.851562 10.585938 17.851562 10.863281 L 17.851562 15.738281 C 17.851562 16.371094 17.347656 16.875 16.710938 16.875 L 7.289062 16.875 C 6.652344 16.875 6.148438 16.371094 6.148438 15.738281 L 6.148438 7.613281 C 6.148438 7.335938 6.363281 7.125 6.636719 7.125 Z M 7.613281 9.074219 C 7.4375 9.074219 7.273438 9.164062 7.183594 9.316406 C 7.097656 9.46875 7.097656 9.65625 7.183594 9.808594 C 7.273438 9.960938 7.4375 10.050781 7.613281 10.050781 L 14.4375 10.050781 C 14.613281 10.050781 14.777344 9.960938 14.867188 9.808594 C 14.953125 9.65625 14.953125 9.46875 14.867188 9.316406 C 14.777344 9.164062 14.613281 9.074219 14.4375 9.074219 Z M 7.613281 11.675781 C 7.34375 11.675781 7.125 11.894531 7.125 12.164062 L 7.125 14.4375 C 7.125 14.707031 7.34375 14.925781 7.613281 14.925781 L 9.886719 14.925781 C 10.15625 14.925781 10.375 14.707031 10.375 14.4375 L 10.375 12.164062 C 10.375 11.894531 10.15625 11.675781 9.886719 11.675781 Z M 11.835938 11.675781 C 11.660156 11.671875 11.5 11.765625 11.410156 11.917969 C 11.320312 12.070312 11.320312 12.257812 11.410156 12.410156 C 11.5 12.558594 11.660156 12.652344 11.835938 12.648438 L 14.4375 12.648438 C 14.613281 12.652344 14.777344 12.558594 14.867188 12.410156 C 14.953125 12.257812 14.953125 12.070312 14.867188 11.917969 C 14.777344 11.765625 14.613281 11.671875 14.4375 11.675781 Z M 8.101562 12.648438 L 9.398438 12.648438 L 9.398438 13.949219 L 8.101562 13.949219 Z M 11.835938 13.949219 C 11.660156 13.949219 11.5 14.039062 11.410156 14.191406 C 11.320312 14.34375 11.320312 14.53125 11.410156 14.683594 C 11.5 14.835938 11.660156 14.925781 11.835938 14.925781 L 14.4375 14.925781 C 14.613281 14.925781 14.777344 14.835938 14.867188 14.683594 C 14.953125 14.53125 14.953125 14.34375 14.867188 14.191406 C 14.777344 14.039062 14.613281 13.949219 14.4375 13.949219 Z M 11.835938 13.949219 "/>
</g>
</svg>
